<svg version="1.0" xmlns="http://www.w3.org/2000/svg"
 width="512.000000pt" height="512.000000pt" viewBox="0 0 512.000000 512.000000"
 preserveAspectRatio="xMidYMid meet">

<g transform="translate(0.000000,512.000000) scale(0.100000,-0.100000)"
fill="#000000" stroke="none">
<path d="M2515 4071 c-11 -5 -31 -21 -45 -36 l-25 -27 -3 -282 -3 -283 -132
-17 c-386 -51 -783 -211 -1163 -471 l-120 -82 -186 183 c-211 207 -235 222
-305 188 -48 -24 -78 -79 -68 -126 5 -25 52 -78 188 -215 99 -101 179 -184
176 -186 -48 -34 -237 -209 -345 -319 -187 -190 -272 -292 -280 -334 -9 -48
21 -104 69 -128 67 -32 98 -15 216 118 458 516 1036 915 1541 1064 206 61 315
76 530 76 215 0 324 -15 528 -76 509 -150 1061 -529 1533 -1054 99 -110 124
-133 154 -138 78 -15 155 61 141 139 -8 42 -100 151 -290 343 -108 110 -280
269 -335 309 -3 2 77 85 176 186 199 201 209 217 176 285 -24 48 -79 77 -131
67 -30 -6 -69 -38 -227 -194 l-190 -188 -124 83 c-383 258 -782 419 -1159 469
-62 8 -117 15 -122 15 -5 0 -10 124 -12 285 l-3 285 -31 31 c-33 33 -92 46
-129 30z"/>
<path d="M2387 3025 c-318 -60 -578 -256 -721 -542 -224 -447 -73 -1007 344
-1275 163 -104 316 -154 505 -165 433 -23 830 243 985 659 73 199 77 449 9
651 -109 325 -381 575 -714 658 -107 27 -304 34 -408 14z m368 -250 c82 -22
208 -86 277 -140 118 -93 224 -254 264 -405 25 -89 25 -291 0 -380 -57 -212
-206 -394 -401 -490 -120 -59 -189 -74 -335 -74 -146 0 -215 15 -336 75 -465
228 -567 847 -199 1214 107 108 231 176 381 209 84 19 260 14 349 -9z"/>
<path d="M2406 2654 c-174 -42 -337 -175 -416 -340 -56 -115 -77 -273 -45
-334 30 -57 104 -76 162 -40 42 25 52 46 63 137 25 194 158 328 353 353 92 11
112 21 137 63 36 58 17 132 -40 162 -36 19 -134 18 -214 -1z"/>
</g>
</svg>
