<svg version="1.0" xmlns="http://www.w3.org/2000/svg"
 width="512.000000pt" height="512.000000pt" viewBox="0 0 512.000000 512.000000"
 preserveAspectRatio="xMidYMid meet">

<g transform="translate(0.000000,512.000000) scale(0.100000,-0.100000)"
fill="#000000" stroke="none">
<path d="M270 3623 c-44 -22 -73 -76 -66 -121 3 -21 27 -61 63 -105 85 -105
357 -380 467 -472 l95 -80 -168 -170 c-93 -93 -176 -181 -185 -195 -34 -51
-11 -136 44 -165 16 -8 46 -15 66 -15 36 0 49 11 235 196 l197 196 143 -95
c239 -157 401 -241 637 -331 181 -69 436 -128 597 -138 l40 -3 5 -285 c6 -314
6 -316 69 -346 46 -22 97 -12 136 26 l30 30 5 288 5 287 84 8 c374 34 823 211
1216 481 l110 76 180 -180 c111 -110 194 -185 217 -194 66 -28 129 1 152 69
23 66 10 85 -181 277 -97 98 -175 179 -173 181 293 248 612 581 626 652 9 49
-21 105 -69 129 -68 33 -98 15 -225 -127 -369 -413 -836 -769 -1240 -946 -442
-194 -836 -237 -1247 -137 -557 136 -1127 519 -1681 1128 -90 99 -121 113
-184 81z"/>
</g>
</svg>
